{
  "accessors": [
    {
      "bufferView": 2,
      "componentType": 5126,
      "count": 65532,
      "max": [
        13451.10546875,
        439.5,
        9707.7734375
      ],
      "min": [
        -13451.10546875,
        15.0,
        -9707.7734375
      ],
      "type": "VEC3"
    },
    {
      "bufferView": 2,
      "byteOffset": 786384,
      "componentType": 5126,
      "count": 65532,
      "max": [
        0.47495290637016296,
        1.0,
        0.5142924189567566
      ],
      "min": [
        -0.7695180177688599,
        0.6223025918006897,
        -0.5426524877548218
      ],
      "type": "VEC3"
    },
    {
      "bufferView": 1,
      "componentType": 5126,
      "count": 65532,
      "max": [
        1.0,
        1.0
      ],
      "min": [
        0.0,
        0.0
      ],
      "type": "VEC2"
    },
    {
      "bufferView": 0,
      "componentType": 5125,
      "count": 385107,
      "type": "SCALAR"
    },
    {
      "bufferView": 2,
      "byteOffset": 1572768,
      "componentType": 5126,
      "count": 65532,
      "max": [
        13420.1826171875,
        640.5,
        9707.7734375
      ],
      "min": [
        -13451.10546875,
        15.0,
        -6762.2978515625
      ],
      "type": "VEC3"
    },
    {
      "bufferView": 2,
      "byteOffset": 2359152,
      "componentType": 5126,
      "count": 65532,
      "max": [
        0.8424054980278015,
        1.0,
        0.5492655634880066
      ],
      "min": [
        -0.6512870192527771,
        0.528181254863739,
        -0.7430800199508667
      ],
      "type": "VEC3"
    },
    {
      "bufferView": 1,
      "byteOffset": 524256,
      "componentType": 5126,
      "count": 65532,
      "max": [
        0.9988505840301514,
        1.0
      ],
      "min": [
        0.0,
        0.15170706808567047
      ],
      "type": "VEC2"
    },
    {
      "bufferView": 0,
      "byteOffset": 1540428,
      "componentType": 5125,
      "count": 385545,
      "type": "SCALAR"
    },
    {
      "bufferView": 2,
      "byteOffset": 3145536,
      "componentType": 5126,
      "count": 65532,
      "max": [
        13389.2607421875,
        730.5,
        9707.7734375
      ],
      "min": [
        -13451.10546875,
        27.0,
        -3776.82177734375
      ],
      "type": "VEC3"
    },
    {
      "bufferView": 2,
      "byteOffset": 3931920,
      "componentType": 5126,
      "count": 65532,
      "max": [
        0.8784517645835876,
        1.0,
        0.8046649694442749
      ],
      "min": [
        -0.8927558064460754,
        0.4093268811702728,
        -0.6393243670463562
      ],
      "type": "VEC3"
    },
    {
      "bufferView": 1,
      "byteOffset": 1048512,
      "componentType": 5126,
      "count": 65532,
      "max": [
        0.9977011680603027,
        1.0
      ],
      "min": [
        0.0,
        0.30547434091567993
      ],
      "type": "VEC2"
    },
    {
      "bufferView": 0,
      "byteOffset": 3082608,
      "componentType": 5125,
      "count": 385989,
      "type": "SCALAR"
    },
    {
      "bufferView": 2,
      "byteOffset": 4718304,
      "componentType": 5126,
      "count": 65532,
      "max": [
        13358.3388671875,
        540.0,
        9707.7734375
      ],
      "min": [
        -13451.10546875,
        0.0,
        -792.2598876953125
      ],
      "type": "VEC3"
    },
    {
      "bufferView": 2,
      "byteOffset": 5504688,
      "componentType": 5126,
      "count": 65532,
      "max": [
        0.7577901482582092,
        1.0,
        0.7628068923950195
      ],
      "min": [
        -0.7800037860870361,
        0.5566679239273071,
        -0.7745704054832458
      ],
      "type": "VEC3"
    },
    {
      "bufferView": 1,
      "byteOffset": 1572768,
      "componentType": 5126,
      "count": 65532,
      "max": [
        0.9965517520904541,
        1.0
      ],
      "min": [
        0.0,
        0.4591945707798004
      ],
      "type": "VEC2"
    },
    {
      "bufferView": 0,
      "byteOffset": 4626564,
      "componentType": 5125,
      "count": 386436,
      "type": "SCALAR"
    },
    {
      "bufferView": 2,
      "byteOffset": 6291072,
      "componentType": 5126,
      "count": 65532,
      "max": [
        13327.4169921875,
        331.5,
        9707.7734375
      ],
      "min": [
        -13451.10546875,
        27.0,
        2273.119873046875
      ],
      "type": "VEC3"
    },
    {
      "bufferView": 2,
      "byteOffset": 7077456,
      "componentType": 5126,
      "count": 65532,
      "max": [
        0.6731897592544556,
        1.0,
        0.789644181728363
      ],
      "min": [
        -0.8284759521484375,
        0.4824375808238983,
        -0.7195277214050293
      ],
      "type": "VEC3"
    },
    {
      "bufferView": 1,
      "byteOffset": 2097024,
      "componentType": 5126,
      "count": 65532,
      "max": [
        0.9954023361206055,
        1.0
      ],
      "min": [
        0.0,
        0.6170772910118103
      ],
      "type": "VEC2"
    },
    {
      "bufferView": 0,
      "byteOffset": 6172308,
      "componentType": 5125,
      "count": 386886,
      "type": "SCALAR"
    },
    {
      "bufferView": 2,
      "byteOffset": 7863840,
      "componentType": 5126,
      "count": 65532,
      "max": [
        13296.4951171875,
        279.0,
        9707.7734375
      ],
      "min": [
        -13451.10546875,
        19.5,
        5255.8310546875
      ],
      "type": "VEC3"
    },
    {
      "bufferView": 2,
      "byteOffset": 8650224,
      "componentType": 5126,
      "count": 65532,
      "max": [
        0.7295262217521667,
        1.0,
        0.8712130784988403
      ],
      "min": [
        -0.9297685027122498,
        0.3162339925765991,
        -0.8805108070373535
      ],
      "type": "VEC3"
    },
    {
      "bufferView": 1,
      "byteOffset": 2621280,
      "componentType": 5126,
      "count": 65532,
      "max": [
        0.9942529201507568,
        1.0
      ],
      "min": [
        0.0,
        0.7707021832466125
      ],
      "type": "VEC2"
    },
    {
      "bufferView": 0,
      "byteOffset": 7719852,
      "componentType": 5125,
      "count": 387327,
      "type": "SCALAR"
    },
    {
      "bufferView": 2,
      "byteOffset": 9436608,
      "componentType": 5126,
      "count": 27938,
      "max": [
        13265.572265625,
        277.5,
        9707.7734375
      ],
      "min": [
        -13451.10546875,
        10.5,
        2273.119873046875
      ],
      "type": "VEC3"
    },
    {
      "bufferView": 2,
      "byteOffset": 9771864,
      "componentType": 5126,
      "count": 27938,
      "max": [
        0.8719656467437744,
        1.0,
        0.7739204168319702
      ],
      "min": [
        -0.8968004584312439,
        0.4083901643753052,
        -0.5621641278266907
      ],
      "type": "VEC3"
    },
    {
      "bufferView": 1,
      "byteOffset": 3145536,
      "componentType": 5126,
      "count": 27938,
      "max": [
        0.9931034445762634,
        1.0
      ],
      "min": [
        0.0,
        0.6170772910118103
      ],
      "type": "VEC2"
    },
    {
      "bufferView": 0,
      "byteOffset": 9269160,
      "componentType": 5125,
      "count": 162210,
      "type": "SCALAR"
    },
    {
      "bufferView": 2,
      "byteOffset": 10107120,
      "componentType": 5126,
      "count": 8286,
      "max": [
        13451.10546875,
        887.1395874023438,
        11260.88671875
      ],
      "min": [
        -15443.4013671875,
        -400.13958740234375,
        -7366.09716796875
      ],
      "type": "VEC3"
    },
    {
      "bufferView": 2,
      "byteOffset": 10206552,
      "componentType": 5126,
      "count": 8286,
      "max": [
        1.0,
        0.8944272994995117,
        1.0
      ],
      "min": [
        -1.0,
        -0.9970545172691345,
        -1.0
      ],
      "type": "VEC3"
    },
    {
      "bufferView": 3,
      "componentType": 5126,
      "count": 8286,
      "max": [
        1.0,
        1.0,
        1.0,
        1.0
      ],
      "min": [
        0.0,
        0.0,
        0.0,
        1.0
      ],
      "type": "VEC4"
    },
    {
      "bufferView": 0,
      "byteOffset": 9918000,
      "componentType": 5125,
      "count": 48324,
      "type": "SCALAR"
    }
  ],
  "asset": {
    "extras": {
      "author": "Sara Carena (https://sketchfab.com/saracarena1)",
      "license": "CC-BY-NC-SA-4.0 (http://creativecommons.org/licenses/by-nc-sa/4.0/)",
      "source": "https://sketchfab.com/3d-models/campi-flegrei-italy-32129d36a7804a40b941b0a79ad01633",
      "title": "Campi Flegrei, Italy"
    },
    "generator": "Sketchfab-12.68.0",
    "version": "2.0"
  },
  "bufferViews": [
    {
      "buffer": 0,
      "byteLength": 10111296,
      "name": "floatBufferViews",
      "target": 34963
    },
    {
      "buffer": 0,
      "byteLength": 3369040,
      "byteOffset": 10111296,
      "byteStride": 8,
      "name": "floatBufferViews",
      "target": 34962
    },
    {
      "buffer": 0,
      "byteLength": 10305984,
      "byteOffset": 13480336,
      "byteStride": 12,
      "name": "floatBufferViews",
      "target": 34962
    },
    {
      "buffer": 0,
      "byteLength": 132576,
      "byteOffset": 23786320,
      "byteStride": 16,
      "name": "floatBufferViews",
      "target": 34962
    }
  ],
  "buffers": [
    {
      "byteLength": 23918896,
      "uri": "scene.bin"
    }
  ],
  "images": [
    {
      "uri": "textures/TerrainNodeMaterial_baseColorNosea.png"
    }
  ],
  "materials": [
    {
    "doubleSided": true,
    "name": "TerrainNodeMaterial",
    "pbrMetallicRoughness": {
      "baseColorTexture": {
        "index": 0
      },
      "baseColorFactor": [1, 1, 1, 1], 
      "metallicFactor": 0.15,
      "roughnessFactor": 0.85
    },
    "alphaMode": "BLEND"
  },
    {
      "doubleSided": true,
      "name": "AdornmentsMaterial",
      "pbrMetallicRoughness": {
        "metallicFactor": 0.8954955037119458
      }
      
    }
  ],
  "meshes": [
    {
      "name": "Object_0",
      "primitives": [
        {
          "attributes": {
            "NORMAL": 1,
            "POSITION": 0,
            "TEXCOORD_0": 2
          },
          "indices": 3,
          "material": 0,
          "mode": 4
        }
      ]
    },
    {
      "name": "Object_1",
      "primitives": [
        {
          "attributes": {
            "NORMAL": 5,
            "POSITION": 4,
            "TEXCOORD_0": 6
          },
          "indices": 7,
          "material": 0,
          "mode": 4
        }
      ]
    },
    {
      "name": "Object_2",
      "primitives": [
        {
          "attributes": {
            "NORMAL": 9,
            "POSITION": 8,
            "TEXCOORD_0": 10
          },
          "indices": 11,
          "material": 0,
          "mode": 4
        }
      ]
    },
    {
      "name": "Object_3",
      "primitives": [
        {
          "attributes": {
            "NORMAL": 13,
            "POSITION": 12,
            "TEXCOORD_0": 14
          },
          "indices": 15,
          "material": 0,
          "mode": 4
        }
      ]
    },
    {
      "name": "Object_4",
      "primitives": [
        {
          "attributes": {
            "NORMAL": 17,
            "POSITION": 16,
            "TEXCOORD_0": 18
          },
          "indices": 19,
          "material": 0,
          "mode": 4
        }
      ]
    },
    {
      "name": "Object_5",
      "primitives": [
        {
          "attributes": {
            "NORMAL": 21,
            "POSITION": 20,
            "TEXCOORD_0": 22
          },
          "indices": 23,
          "material": 0,
          "mode": 4
        }
      ]
    },
    {
      "name": "Object_6",
      "primitives": [
        {
          "attributes": {
            "NORMAL": 25,
            "POSITION": 24,
            "TEXCOORD_0": 26
          },
          "indices": 27,
          "material": 0,
          "mode": 4
        }
      ]
    },
    {
      "name": "Object_7",
      "primitives": [
        {
          "attributes": {
            "COLOR_0": 30,
            "NORMAL": 29,
            "POSITION": 28
          },
          "indices": 31,
          "material": 1,
          "mode": 4
        }
      ]
    }
  ],
  "nodes": [
    {
      "children": [
        1
      ],
      "matrix": [
        1.0,
        0.0,
        0.0,
        0.0,
        0.0,
        2.220446049250313e-16,
        -1.0,
        0.0,
        0.0,
        1.0,
        2.220446049250313e-16,
        0.0,
        0.0,
        0.0,
        0.0,
        1.0
      ],
      "name": "Sketchfab_model"
    },
    {
      "children": [
        2
      ],
      "name": "root"
    },
    {
      "children": [
        3,
        11
      ],
      "matrix": [
        1.0,
        0.0,
        0.0,
        0.0,
        0.0,
        2.220446049250313e-16,
        1.0,
        0.0,
        0.0,
        -1.0,
        2.220446049250313e-16,
        0.0,
        0.0,
        0.0,
        0.0,
        1.0
      ],
      "name": "GLTF_SceneRootNode"
    },
    {
      "children": [
        4,
        5,
        6,
        7,
        8,
        9,
        10
      ],
      "name": "TerrainNode_0"
    },
    {
      "mesh": 0,
      "name": "Object_4"
    },
    {
      "mesh": 1,
      "name": "Object_5"
    },
    {
      "mesh": 2,
      "name": "Object_6"
    },
    {
      "mesh": 3,
      "name": "Object_7"
    },
    {
      "mesh": 4,
      "name": "Object_8"
    },
    {
      "mesh": 5,
      "name": "Object_9"
    },
    {
      "mesh": 6,
      "name": "Object_10"
    },
    {
      "children": [
        12
      ],
      "name": "Adornments_1"
    },
    {
      "mesh": 7,
      "name": "Object_12"
    }
  ],
  "samplers": [
    {
      "magFilter": 9729,
      "minFilter": 9987,
      "wrapS": 10497,
      "wrapT": 10497
    }
  ],
  "scene": 0,
  "scenes": [
    {
      "name": "Sketchfab_Scene",
      "nodes": [
        0
      ]
    }
  ],
  "textures": [
    {
      "sampler": 0,
      "source": 0
    }
  ]
}
